<svg xmlns="http://www.w3.org/2000/svg" viewBox="0 0 64 64">
  <circle cx="32" cy="32" r="30" fill="#101010"/>
  <g fill="none" stroke="#fff" stroke-linecap="round" stroke-linejoin="round">
    <path d="M39.5 47.7c-1.8 3.5-4.7 5.3-8 5.3-5.4 0-9.1-4-9.1-9.2V30.9c0-8 5.6-13.8 13.4-13.8 7.5 0 13 5.3 13 12.3 0 5-2.3 8-5.9 10.5-2.4 1.7-3.7 3.4-3.4 7.8Z" stroke-width="3.6"/>
    <path d="M29.8 39.7v-8.3c0-4 2.4-6.8 6.1-6.8 3.4 0 5.8 2.4 5.8 5.6 0 2.4-1.1 4-3.3 5.5-3.8 2.7-5.1 5.7-3.8 9.2" stroke-width="3"/>
    <path d="M29.8 32.8c2.4-.5 4.1.1 5.4 1.9" stroke-width="2.6"/>
  </g>
</svg>
